<svg viewBox="0 0 250 173" xmlns="http://www.w3.org/2000/svg" fill-rule="evenodd" clip-rule="evenodd" stroke-linejoin="round" stroke-miterlimit="1.414"><path d="M96.88 2.08V2h-.08v-.08h-.08l-10-1.76h-.08l-7.52 1.28h-.08v.08h-.08L74 17.36l-2.32 9.28v.08l-.72 16.16-7.84-12.72-4.24-13.52-2.8-14.32v-.08L56 2.16 42.16.96H42v.08L39.52 8.8l-3.04 12.08-1.52 8.8-2.32 1.92L28 32.8l-3.6-12.64-3.28-12.64-1.28-5.28v-.08h-.08L.16 1.2H0v.16l4 9.28L6.32 24l3.2 10.8 1.04 12.8 6.08 14.64 4.48 15.6h.08v.08h.08l14.8 2.24h.08c0-.08 0-.08.08-.08V80l-.48-5.44 5.76-10.8 4-13.84 1.2-3.2 3.68-2.48 3.92 14.16v.08h.08l5.2 6.8 1.52 12.24v.08h.08v.08h.08l13.84.72h.08v-.08l5.76-12.56h.08v-.08l.48-7.76 4-10.8v-.08l-.24-6.24 5.28-12.56 2.48-11.28 3.84-14.88zM15.44 14.72l-2.32-8.24 4.88.8-2.56 7.44zm2.8-7.44l2.56.4-4.96 6.72 2.4-7.12zm-2.96 7.68l-10.8-4.4 8.4-4.08 2.4 8.48zm0 .24l-4.72 4.56-6.08-8.88 10.8 4.32zm0 .32l-1.6 8.88-3.04-4.4 4.64-4.48zm.32-.16l8.4 4.8-10.16 4.32 1.76-9.12zm-2.16 9.2l-6.72-.72 3.76-3.68 2.96 4.4zm26.8-10.24l2.48-4.56-.64 5.12-1.6 1.68-.24-2.24zm0 2.48l-3.12 3.36 2.96-5.44.16 2.08zm22.48 29.04l1.76.24-6.64 1.2 4.88-1.44zm-7.2 1.84l-3.04-3.2 9.68 1.28-6.64 1.92zm20.4 5.2l-8.8 8-1.68-14.56 10.48 6.56zm-10.4-6.8l5.52-2.64 4.72 9.04-10.24-6.4zm5.76-2.56l9.76 2.56-4.96 6.56-4.8-9.12zm-5.92 2.4l-.08-.8 4.32-1.28-4.24 2.08zm-.24 0l-1.76-.24 1.68-.48.08.72zm-2.4-.32l-10.48-1.44-3.2-3.36 4.48-16.16 9.36 5.68 2.08 14.64-2.24.64zM23.36 61.04l-.24-.4 4.48-1.12-4.24 1.52zm-.4-.24l-.16-.08h.08l.08.08zm.08-.4l-1.76-3.12 8.4 1.44-6.64 1.68zm-1.92-3.36L16.4 48.4l13.76-4.64v14.72l-9.04-1.44zm-.32-.08l-4.16-.64-.24-7.44 4.4 8.08zm14.32-18.88l-4.48 4.96 2.08-5.76 2.4.8zm.08-.24l-2.32-.96 1.84-5.04.48 6zm-.24-6.32l2.4 1.6-1.92 4.4-.48-6zm-2.48 5.68l-2.16 5.92-1.52-7.2 3.68 1.28zm-3.68-1.52l-.08-.24 2.64 1.12-2.56-.88zm1.28 7.28l-6.24-8.72 4.72 1.6 1.52 7.12zm0 .56l-13.6 4.64 7.04-13.92 6.56 9.28zM16.4 56.24L15.12 56l1.04-6.4.24 6.64zm0 .24v.4l-.8-.48.8.08zm.24.08l4.32.72 1.76 3.2-.24.08-5.84-3.52v-.48zm5.52 4.08L16.88 62l-.24-4.64 5.52 3.28zm.32.16l.4.32-3.68.56 3.28-.88zm7.6-1.92l-5.04 11.2-1.6-8.8 6.64-2.4zm.32-15.12l11.04 6.32L30.4 58.4V43.76zm1.68.64l8.24 3.44 1.04 1.92-9.28-5.36zm-1.52-.88l4.72-5.28 4.88 9.28-9.6-4zM37.6 33.2l10.72 7.36-12.8-2.64 2.08-4.72zm9.76-24l-4.96 5.36.64-5.36h4.32zm-.08.48l-5.92 14.16.96-8.88 4.96-5.28zm.4-.24l5.6 14.88-11.92.24 6.32-15.12zm5.6 15.12l-4.4 16-11.2-7.6 3.52-8.16 12.08-.24zM47.92 9.44l10.64 7.2-5.04 7.52-5.6-14.72zm-.48-.48l-3.76-.08 2.72-1.44 1.04 1.52zm-.88-1.68l8.4-4.32-7.28 5.92-1.12-1.6zM43.12 8.8h-.16l-.64-7.28 3.92 5.68-3.12 1.6zm-.4.4l-2.48 4.64-.48-4.88 2.96.24zm-.64 6.08l-.96 8.24-.64-6.56 1.6-1.68zm-4.64 17.6l-2.4-1.68 5.68-5.92-3.28 7.6zm-4.8 3.92l-3.84-1.6 5.76-3.68-1.92 5.28zm-4.16-1.2l-2.08-.72 2.08.48v.24zm-5.2-1.44l-7.04 13.92-6.4-13.2 13.44-.72zm-13.44.48l3.92-9.76 9.44 9.04-13.36.72zm5.04 21.12l-4-8 5.2.72-1.2 7.28zm1.52 1.44l.16 4-1.36-4.8 1.2.8zm6.72 4.16l-.8 6.24-5.36-5.36 6.16-.88zm.16.64l1.52 8.08-2.24-2.24.72-5.84zm1.6 8.48l-3.44 6.64 1.12-8.96 2.32 2.32zm.16.24l5.6 4.8-9.12 2.08 3.52-6.88zm.64.16l9.52 3.6-4.24.96-5.28-4.56zm-.48-.48l5.12-11.36 5.04 15.28L25.2 70.4zm16.32-20l-.24 13.12-10.72-4.88 10.96-8.24zm.72-.88l.48-.64.32.08-.8.56zm1.04-.4l1.6.64-2.8.16 1.2-.8zm-1.6.72L40.72 48l1.76.8-.8 1.04zm-1.2-2.16L36 38.96l7.36 8.72-.72.88-2.16-.88zm-4.72-9.36l11.36 4.56-3.6 4.56-7.76-9.12zm.96.08l12 2.48-1.44 1.76-10.56-4.24zm15.12 5.76l-1.28-.24-1.2-2.48 2.48 2.72zm.32.24l2.24 2.48-3.52-2.64 1.28.16zm3.44 3.52l9.36-1.68L54.64 58l.96-10.08zm9.6-1.52l1.68 14.64-12.16-2.72L65.2 46.4zm2 14.96l13.36 4.4-11.92 7.28-1.44-11.68zm1.2 11.6L60 65.2l6.96-3.84 1.44 11.6zm-.88-11.76l10.64-2.4 2.48 6.72-13.12-4.32zm-.08-.24l8.64-7.84 2 5.44-10.64 2.4zm8.96-7.6l4.72 4.48-2.8.64-1.92-5.12zm4.88-7.2l3.84.96-8.48 5.28 4.64-6.24zm.16-.24l2.24-2.96 1.52 3.92-3.76-.96zm-.24-.08l-9.52-2.48 11.36-2.08.48 1.44-2.32 3.12zm2.08-4.56l1.6-.32-1.12 1.52-.48-1.2zm7.12-22.64l-.88.72-8.24-10.4 9.36 6.48-.24 3.2zm.48-3.04l1.84 1.28-2 1.6.16-2.88zm-2.08 4.64l.72-.56.64.8-1.36-.24zm1.28.48l-6.4 3.36 4.88-3.68 1.52.32zm-1.6-.56l-6.64-1.36L80.8 8.72l8.56 10.8-.88.64zm-.24.16l-5.76 4.4-.56-5.6 6.32 1.2zm-6 4.32l-7.76-7.04 7.12 1.44.64 5.6zm.32.48l2.88 1.2-2.24 2.56-.64-3.76zm.4 4l-2.8 3.36 2.16-7.04.64 3.68zm-.24-4.16l7.2-3.84-4.32 4.96-2.88-1.12zm7.6-3.92V28l-4.48-1.76 4.48-5.2zm-.64-1.52l.72-.56-.08 1.36-.64-.8zM80.96 8.48l10.08-.72-.4 7.36-9.68-6.64zm9.76-.96l-9.84.64 3.04-4.08 6.8 3.44zm-6.64-3.6L86.64.48l4.24 6.8-6.8-3.36zm-3.36 4.16l-1.44-6.32L83.76 4l-3.04 4.08zm.88 10.72l-7.28-1.52 6.24-8.56L81.6 18.8zm.48 6.08l-4.8.8-2.88-7.84 7.68 7.04zm.16.24l-2.4 7.52-2.48-6.72 4.88-.8zm.96 15.92L80.4 34l4.56 6.72-1.76.32zm-3.12-8l3.36-1.52 1.52 8.72-4.88-7.2zm.24-.4l2.72-3.12.32 1.76-3.04 1.36zm2.96-3.44l2.4-2.8 4.4 1.84-6.48 2.96-.32-2zm7.36-10.4l1.76-1.36-1.84 2.8.08-1.44zm.24-3.52l.4-6.64 1.52 8-1.92-1.36zm.32-7.92L86.96.48l9.52 1.68-5.28 5.2zm-7.28-3.6l-4.4-2.16L86.4.48l-2.48 3.28zM79.12 2l1.36 6.32-6 8.4L79.12 2zm-5.04 15.84l2.96 7.84-5.04.88 2.08-8.72zm3.04 8.08l2.48 6.72-7.44-5.84 4.96-.88zm5.76 15.12l-11.52 2.08 8.48-9.92 3.04 7.84zM65.2 44.88l-2-14.08 7.68 12.4-5.68 1.68zM53.6 24.4l5.12-7.44 4.08 12.96-9.2-5.52zM47.92 9.12l8-6.56 2.64 13.84-10.64-7.28zm-1.44-2L42.4 1.2l13.12 1.2-9.04 4.72zm-4.4-5.44l.64 7.12-2.96-.08 2.32-7.04zM39.6 9.6l.4 4.64-3.04 5.68L39.6 9.6zm.72 7.6l.64 7.2-4.16-3.52 3.52-3.68zm-5.28 13.68l.16-1.04 4.24-3.52-4.4 4.56zm-4.96 3.2l2.72-2.24 1.36-.32-4.08 2.56zm-6-.08l3.76-.88.56 2L24.08 34zm-10.16-9.28l10.24-4.32-.72 13.36-9.52-9.04zm1.76-9.6l5.28-7.28 3.12 12.08-8.4-4.8zm2.64-8.08l1.44-4.24 1.04 4.64-2.48-.4zm-.24-.08l-4.8-.72 6.24-3.68-1.44 4.4zM4.24 10.4L.32 1.52l12.32 4.8-8.4 4.08zm6.08 9.52l-3.84 3.76L4.4 11.12l5.92 8.8zm3.2 4.88l-3.84 9.6-3.12-10.32 6.96.72zM16 48.16l-5.2-.72-.96-12L16 48.16zm-1.12 8L15.92 60l-3.76-9.2 2.72 5.36zm7.44 11.76l-1.12 9.2-4.24-14.48 5.36 5.28zm8.56 7.76l4.8 4.16-13.76-2.08 8.96-2.08zm.32-.08l4.32-.96.4 5.12-4.72-4.16zm4.4-1.44l-5.04-15.28 10.64 4.88-5.6 10.4zm6.16-23.92L45.2 50l-3.68 12.72.24-12.48zm1.76-1.28l.64-.4.8.96-1.44-.56zm-.24-.16l-.4-.16.64-.8.48.48-.72.48zm.4-1.12l3.68-4.72.48.24-1.28 3.36-2.4 1.68-.48-.56zm3.84-4.88l.96-1.28-.48 1.44-.48-.16zm1.44-1.68l1.2 2.72-2-.8.8-1.92zm6.4 6.8l-.96 9.84-3.76-13.36 4.72 3.52zM66.72 61.2l-6.96 3.84-4.96-6.4 11.92 2.56zm1.6 12l-6.96 4.08-1.44-11.76 8.4 7.68zm.24.24l6.16 4.72-13.04-.72 6.88-4zm6.48 4.64l-6.24-4.8L80.56 66l-5.52 12.08zm5.76-12.96l-2.4-6.4 2.88-.64-.48 7.04zm.56-7.44l-5.04-4.8 8.88-5.52-3.84 10.32zm2.48-14.96l1.2-1.6.24 5.2-1.44-3.6zm1.36-2.4l-1.52-8.88 6.48-2.96-4.96 11.84zm5.36-19.6l2.16-3.2-2.16 9.52v-6.32zm2.4-4.4l-1.6-8.72 5.12-5.12-3.52 13.84zM71.92 26.96l7.76 6.08-8.48 9.92.72-16zm-35.2-5.84l4.24 3.6-5.68 4.72 1.44-8.32zm-1.84 8.96l-.16 1.04-1.52.4 1.68-1.44zM32.24 32l-3.6 3.04-.56-2L32.24 32zm-8.56 1.84l.64-12.88 3.44 11.92-4.08.96zM19.36 2.4l-6.4 3.76L.88 1.44l18.48.96zm26 47.2l-1.04-1.2 2.08-1.36-1.04 2.56zm2.72-6.32l2.08.8-3.28 2.24 1.2-3.04zm53.28 32.24l-.16 4.16h.16v.16l4.56.16.08-.08V80l13.76-.32 10.32.24v-.16.16l11.28-.32 14.24.16v-.08l.16-.08-.24-16.96h-.16v-.16l-9.04-.16v.08-.08h-11.68l-13.92-.16-.16-13.36 21.12-.16-.08-.08 8.8-4.08-.08-.16h.16l.08-13.12h-.08v-.08l-15.36 1.84-13.84-3.68-.08-4.8 3.04-6.88 7.2.08 10.16.24v-.16.16l13.76-.24v-.16h.16V.24h-.16V.08l-17.12 2L125.68 0v.16V0L114.4.88l-12.96-.8-.08.16h-.08v12.08h.08-.08l2.4 11.12-2.48 9.92h.16-.16l1.12 15.68-.8 8h.16-.16l-.16 18.48zm17.28-63.36l2 4.96-10-5.92 8 .96zm-8.4-1.28l4.16-9.52 4.16 10.56-8.32-1.04zm8.72 1.36l3.12.32-1.2 4.48-1.92-4.8zm3.44.4l3.52.4-4.8 4 1.28-4.4zm7.76.64l2.96.16-.64 1.36-2.08-.64-.24-.88zm-.08.8l-2.88-.96 2.64.16.24.8zm9.2-.56l1.2-.48.16.8-1.36-.32zm1.36.56l.64 3.04-2.16-3.36 1.52.32zm-1.68-.72l-.48-9.52 1.92 8.96-1.44.56zm-.24.08l-5.2-.24 4.64-10.4.56 10.64zm-.88.16l-5.04 1.12.64-1.28 4.4.16zM132 14.88l-1.28.32-.24-.72 1.52.4zm.4.24l-.96 2.08-.64-1.76 1.6-.32zm6.4-1.44l2.48 3.84-8.32-2.56 5.84-1.28zm2.16.48l2.8.72-2.08 2.64-.72-3.36zm-.08-.24l-.16-.96 6.64-2.72-3.44 4.4-3.04-.72zm6.96-3.76l7.12 7.12-10.72-2.56 3.6-4.56zm-7.2 2.56l-2.16-10.16 9.04 7.36-6.88 2.8zm-7.36.4l-3.28-.16-.8-2.48 8.72-7.76-4.64 10.4zm-3.52-.16l-3.28-.16 2.48-2.16.8 2.32zm-3.44-.32l-.48-11.52 3.04 9.28-2.56 2.24zm-.24 0l-2.88-2.96 2.4-8.64.48 11.6zm-.24.16l-3.36-.4.64-2.4 2.72 2.8zm-3.68-.48l-3.28-.4-4.16-10.4 8.16 8.24-.72 2.56zm-12.08-1.6l-2.8-3.36L114 1.52l-3.92 9.2zm-.24.16l-8 1.2 5.28-4.56 2.72 3.36zm10.8 6.56l-16.56 5.76 6.08-12 10.48 6.24zm.08.24l-1.68 10.96-14.8-5.2 16.48-5.76zm1.68 23.04l-1.76 6.72.32-6.8 1.44.08zm-1.44-.32l.16-4.24 1.28 4.24h-1.44zm.24-5.04l.08-2.8.88 6.24-.96-3.44zm-.24-.8l-.64-2.24.8-.8-.16 3.04zm-.08.8l-.16 5.04-8.24-.08 7.6-7.76.8 2.8zm-8 4.24l6.24-10.48.88 3.12-7.12 7.36zm7.76 1.04l-.32 7.68-7.84-7.68h8.16zm2 .08l10.8 2.72-12.8 4.96 2-7.68zm11.44 2.4l1.12-9.52 2.8 6.88-3.92 2.64zm4.08-2.4l1.12 2.88-4.96-.32 3.84-2.56zm1.28 3.12l1.76 4.32-6.88-4.56 5.12.24zm.24 0l2.72.16-.96 4.08-1.76-4.24zm-.08-.24l-1.28-3.04 5.84-3.92-1.68 7.12-2.88-.16zm4.8-6.96l5.68 7.52-7.36-.4 1.68-7.12zm-6.16 3.68l-2.88-6.96 8.72 3.04-5.84 3.92zm-4.48 2.8l-5.76-5.6 6.96-4.16-1.2 9.76zm-.32.08l-10.56-2.72 4.88-2.88 5.68 5.6zm-10.8-2.88l-1.2-8.8 6.08 5.92-4.88 2.88zm-2.4-8.32l-.8-2.64 1.6 1.76-.8.88zm-8.08 8.32l-10.48-6.88 17.2-4.4-6.72 11.28zm8 8.24l-17.36.32 9.36-8.24 8 7.92zm-.08.24l-12.16 11.44-5.28-11.04 17.44-.4zm-16.56 28.48l4.96-5.92-2.56 8.16h-.16l-2.24-2.24zm1.92 2.24l-3.84.08 1.76-2.08 2.08 2zm.8 0l2.56-8.56 8.4 6.72-10 1.84h-.96zm13.52-2.4l-2.24.48-7.6-6.08 9.84 5.2v.4zm.32-.24l.32.16-.4.08.08-.24zm-.32.56l-.08 1.84-1.92-1.52 2-.32zm-2.32.4l2 1.6-10.8.08 8.8-1.68zm2.56-.48l.56-.08-.56 1.52v-1.44zm.08-.8l.4-9.84.16 10.16-.56-.32zm-.24-.16l-10.8-5.68 11.36-8.16-.56 13.84zm-16.56.72l-1.6-1.6 6.4-4.16-4.8 5.76zm17.6.16l.48.08-1.12 1.44.64-1.52zm.16-.24l4.56-5.12-4.08 5.28-.48-.16zm7.36-7.84l4.4-.08L132 72l-3.6-2.8zm3.52 3.12l-1.76 6.88-1.92-9.84 3.68 2.96zm-4-2.96l2 10.24-8.16-2.32 6.16-7.92zm4.24 3.12l2.32 1.76-4.08 4.96 1.76-6.72zm.08-.32l.8-3.04 4.08-.08.56 1.36-3.04 3.6-2.4-1.84zm17.44-7.2l2.08.32-6.64 1.76.16-.4 4.4-1.68zm-4.32 1.36l.56-2 3.2.56-3.76 1.44zm-.48.8l-3.36.96 3.44-1.36-.08.4zm-5.92 2.08l1.92 8.64-2.96-7.44 1.04-1.2zm-1.12.96l-.4-1.12h1.36l-.96 1.12zm1.36-1.2l5.52-1.52-3.28 11.44-2.24-9.92zm-1.92-.16l-2.08-5.28 3.6 5.2-1.52.08zm-.24 0l-3.92.08 1.6-6 2.32 5.92zm.72 1.84l3.36 8.4-6.24-4.88 2.88-3.52zm7.28-3.28l6.96-1.92-10.32 13.36 3.36-11.44zm7.28-2.32l-1.36-.64 3.76-1.44-2.4 2.08zm-.88-.08l-1.28-.24.48-.16.8.4zm-1.76-.32l-3.68-.56.4-1.52 3.92 1.84-.64.24zm-3.92-.56l-.88-.16 1.2-1.12-.32 1.28zm-.08.24l-.64 2.08-5.36 2.08 4.88-4.32 1.12.16zm-6.64 4.32l-4.08-6 9.28 1.44-5.2 4.56zm-6.16.24l-4.56.08 6.08-6.08-1.52 6zm-12 7.92l-.16-14.24 7.12 6.48-6.96 7.76zm-12-6.24l-.88-9.92 12.24 1.76-11.36 8.16zm-1.12-9.6l.8 9.12-2.56-4.96 1.76-4.16zm-1.92 3.92L102 57.36l5.68 3.12-1.84 4.4zm2.72 5.84l-6.8 4.48 4.08-9.76 2.72 5.28zm-6.96 5.12l1.52 1.52-1.68 2 .16-3.52zm20 1.6l7.52 2.16-9.04-.16 1.52-2zm13.12-3.04l6.32 4.96-10.64.24 4.32-5.2zm17.6-8.88l3.12 14-13.76-.24 10.64-13.76zm.16-.24l2.72-2.4.24 15.52-2.96-13.12zm-1.84-1.04l-3.68-1.68 7.76.16-4.08 1.52zm-6.16-.4l-8.16-1.2 9.68-.08-1.52 1.28zM128 68.88l-7.04-6.48 13.44.24-6.4 6.24zm-19.84-8.48l12.16-11.44.16 13.2-12.32-1.76zm25.68-16.8l7.2 4.8-19.92.08 12.72-4.88zm8.8.48l7.2.32-8.16 3.92.96-4.24zm1.84-7.68l5.84-4.88-.08 12.4-5.76-7.52zm-.16-.16l-8.64-3.04 14.4-1.76-5.76 4.8zm-16.56 1.04l-6.16-5.92 13.12 1.84-6.96 4.08zm-8.24-8.24l1.52.4.08 1.36-1.6-1.76zm1.28-10.08l.16 5.52-1.52 3.36 1.36-8.88zm.56-1.76l4.48-3.76-1.36 3.12-3.12.64zm2.96-.32l-.24.48h-2l2.24-.48zm1.92-3.68l2.72 2.4-4.16.88 1.44-3.28zm.48.08l3.52 1.04.24.88-1.2.32-2.56-2.24zm3.84 2.16l.56 1.76-1.6-1.52 1.04-.24zm2.08-.32l8.08 2.48-9.12-.16 1.04-2.32zm11.36-.24l10.32 2.56-12.48.24 2.16-2.8zm4-4.96l7.2-9.28V17.2L148 9.92zm-.24-.16l-9.2-7.44L155.04.4l-7.28 9.36zm-18.64.4L125.84.32l12.16 2-8.88 7.84zm-6.16-.64l-8.32-8.4 10.88-.8-2.56 9.2zm-15.84-2.4L101.68.4l12.4.72-6.96 6zm-.16.16L101.52 12V.56l5.44 6.72zm2.88 3.84l-6 11.92-2.32-10.64 8.32-1.28zm-5.92 12.48l14.8 5.2-17.2 4.4 2.4-9.6zm8 16.88l-9.36 8.32-1.12-15.2 10.48 6.88zm-9.36 9.04l5.04 10.64-5.84-3.2.8-7.44zm3.12 15.68l-4.08 9.68.16-17.28 3.92 7.6zm27.36-32.48l-11.68-1.68v-1.52l11.68 3.2zm-12-3.52l-1.68-.48 1.6-3.68.08 4.16zm.16-5.28l-.16-6.32H124l-2.8 6.32zm3.44-7.12l4.56-1.04 1.84 1.68-6.64-.08.24-.56zm42.08 43.44h.16-.16l.16 11.84.08 7.76h.16V80l16.72.32 21.76-.64v-.08l12.48-4.24-.08-.08.08.08 7.52-10.64-.08-.08h.08l-.56-13.28h-.16.16l-3.04-7.6h-.16l.08-.08-5.76-4.56 7.44-7.84-.08-.16.08.08 1.76-10.16h-.08l.08-.08-5.68-13.36h-.08v-.08l-7.12-2.96-.08.08.08-.08L199.28.4V.32l-20.4.24H167.2v.08h-.16l-.24 8.72h.16-.16v12.48h.16-.16l.08 10.8-.24 13.76h.16-.16l.08 13.84zm53.12-15.6l-3.68 1.84-5.6-2.96 8.64.32.64.8zm-.24-.8l1.76.08-1.28.64-.48-.72zM167.28 31.2l10.24 8.16-8.48-.88-1.76-7.28zm1.44 7.2l-1.52-.16V32l1.52 6.4zm44.24 2.16l-2.88 2.56-.8-3.36 1.36-.08 2.32.88zm-1.68-.96l2.88-.16-1.04.88-1.84-.72zm-24.96 8.88l9.92.08 10 3.04-3.04 10.72-16.24.4-.64-14.24zm19.92-27.76l-.4 4.56-1.6-5.36 2 .8zm-1.76-.96l1.84-.64-.08 1.28-1.76-.64zm14.96 6.08l-13.2.08 4.24-3.6 8.96 3.52zm-8.72-3.68l1.68-1.44 6.72 4.72-8.4-3.28zM196.88 47.6l4.48-7.2.88 2.08-5.36 5.12zm5.52-4.88l1.2 2.8-6.8 2.56 5.6-5.36zm3.92-4.08l-1.2 1.12-2.8.16 3.92-1.36.08.08zm-4.72 1.28l1.68-5.44 2.8 3.84-4.48 1.6zm0 .48l2.08.72-1.2 1.2-.88-1.92zm.4-.16l2.8-.24-.88.96-1.92-.72zm3.28-.24l1.52-.08-.08 2.08-2.56-.96 1.12-1.04zm1.84-.08l.16-.08 2.32 3.2-2.64-.96.16-2.16zm-.32-.24l-1.28.08.96-.96.4.48-.08.4zm-.16-1.04l.24-.16v.4l-.24-.24zm-.24-.4l-2.96-4v-.08l3.36 3.92-.4.16zm-3.28-4l-1.68 5.2-.32-7.92 2 2.72zm-6.96 14l-9.44-.08 14.24-7.68-4.8 7.76zm7.6-2.48l2.4 5.6-9.52-2.96 7.12-2.64zm.24-.08l2.56-.96-.24 6.24-2.32-5.28zm-.16-.24l-1.28-2.88 1.36-1.36 2.8 1.04-.08 2.24-2.8.96zm3.12-3.04l2.64.96-2.72.96.08-1.92zm1.84-.88l-1.2-1.68h.24l.96 1.68zm-.64-1.68l.88-.08.64 2.72-1.52-2.64zm-.8-.24l-.24-.4v-.64l.56 1.04h-.32zm-3.84-5.76l2.32-7.2 1.04 11.12-3.36-3.92zm2.56-8.16l.4-4.88 3.68 1.44-4.08 3.44zm-2.8 7.92l-2.16-2.56 4.48-4.56-2.32 7.12zm-2.48-2.4l.4 8.72-14.32-8.72h13.92zm.32 8.96l-14.8 7.92.16-16.8 14.64 8.88zm5.76 4.48l2.88-1.04-3.2 7.28.32-6.24zm2.32-5.12l-.08-.48.96.4-.88.08zm-.24 0l-.96.08-.64-1.2 1.44.56.16.56zm-2.72-11.68l2.08 8.96-1.2 1.04-.88-10zm-.16-1.68l13.68-.08-11.2 10.48-2.48-10.4zm6.56-5.6l6.72-5.68.56 10.8-7.28-5.12zm-.24-.16l-3.12-2.24 9.6-3.2-6.48 5.44zm-.16.16l-1.84 1.52-3.92-1.52.16-1.52 2.32-.8 3.28 2.32zm-5.6-1.84l.16-2 1.84 1.36-2 .64zm-.32.08l-1.84.64 2-2.48-.16 1.84zm-.56 7.2l-4.88 4.96h-14.4l-.08-12.64 13.92-.16 3.6 1.68 1.84 6.16zm-19.2-8l8.08-11.44 5.44 11.28-13.52.16zm-.32 12.8l-11.44-9.84 11.36-2.64.08 12.48zm-.16 17.2l-8-8.48 8.16-8.16-.16 16.64zm-8.56-8.4L170.4 44l-1.28-5.28 8.4.88zm-.16.4l-6.08 7.68-.8-3.36 6.88-4.32zm.56-.24l8 8.4-14.4-.32 6.4-8.08zm8.72 22.96l-9.12 1.04 8.56-14.96.56 13.92zM177.52 64l8.96-.96-6.64 6.64-2.32-5.68zm2.08 5.92l-1.2 1.2-.8-6.24 2 5.04zm7.04-6.64l-2.72 16.48-4-9.76 6.72-6.72zm16.4-.72l-5.76 8.56-10.08-8.16 15.84-.4zm.16.24l.96 7.76-6.64.64 5.68-8.4zm.24.08l5.92 7.2-4.88.48-1.04-7.68zm3.04-11.2l12.24 4.4-15.2 6.16 2.96-10.56zm.64 0l8.56-.08 3.04 4.24-11.6-4.16zm-.16-.24l6.32-3.2 2.24 3.12-8.56.08zm-.24-.16L210 43.6l3.12 4.4-6.4 3.28zm3.68-7.52l5.44 2.88-2.48 1.28-2.96-4.16zm2.8-3.12l.32.08-1.92 1.36 1.6-1.44zm.24-.24l1.12-1.04h.96l-1.76 1.2-.32-.16zm1.04-1.28l-3.76.24-1.68-.64-.08-.24 5.52.64zm-5.76-.48l-.64-.24.64.08v.16zm-1.2-.56l.96-.4.16.48-1.12-.08zm.16-.4l.72-.64.08.32-.8.32zm.88-.8l11.28-10.56-2.24 7.2-8.88 3.76-.16-.4zm.4-18.88l-1.92-1.44 10.96-1.6-9.04 3.04zm-2.48-2.32l3.76-6.8-3.52 7.36-.24-.56zm-.08.8l-.4.08.16-.32.24.24zm-.08.24l-1.44 1.76.96-1.6.48-.16zm-2.24 2.8l-1.36-1.92 2.72-.64-1.36 2.56zm-.4-.08L200.72 18l1.68-.4 1.28 1.84zm-2.96-1.68l1.04-1.12.48.8-1.52.32zm-.32-.08l-.16-3.2 1.36 1.92-1.2 1.28zm-.24-.32l-4.64-9.6 4.4 6.32.24 3.28zm-13.76.4l-.8-10.48 8.8-.8-8 11.28zm-.24 0l-7.84-9.84 7.04-.64.8 10.48zM179.04 7.6l6.16-2.4.16 1.84-6.32.56zm7.04 10.48l-11.36 2.64 3.44-12.64 7.92 10zm.08 12.96l-8.24 8.32-10.72-8.48 7.36-9.84 11.6 10zm-17.36 7.68l1.36 5.44-.4.24-2.48-5.84 1.52.16zm1.44 5.68l.48 2.16-.8-1.92.32-.24zM186 48.48l-8.64 15.12-5.92-15.52 14.56.4zm-8.8 15.68l.88 6.88-4.24-4.16 3.36-2.72zm-3.6 2.56l-6.24-6.16 9.68 3.44-3.44 2.72zm4.4 4.56l-10.56.64 6.16-4.88 4.4 4.24zm1.68-1.12l3.6 8.8-4.8-7.52 1.2-1.28zm7.2-7.04l10.16 8.16-12.96 8.64 2.8-16.8zm17.36 7.68l1.04 8.32-7.68-7.68 6.64-.64zm.24 0l4.96-.48-3.92 8.72-1.04-8.24zm-.96-8.32l15.2-6.16L209.6 70l-6.08-7.52zM216 51.6l3.92-.08-.96 4.24L216 51.6zm-.16-.24l-2.32-3.28 2.64-1.28 4.32 2.32-.48 2.16-4.16.08zm4.88-2.08l3.68 2h-4.16l.48-2zm.08-.24l.56-2.32 3.12 4.24-3.68-1.92zm-.24-.16l-4.16-2.24 3.6-1.76 1.12 1.52-.56 2.48zm-.32-4.16l1.44-.72-.48 2.08-.96-1.36zm-.88-1.12l-.56-.88 2.24.88h-1.68zm-.32-.08l-8.64-.32 3.44-2.32 4.48 1.68.72.96zm-4.96-2.88l1.92-1.28 2.08 2.88-4-1.6zm1.04-1.68l1.12-1.12-.32 1.2-.8-.08zm-.4-.08l-5.84-.64-.16-.72 8.8-3.68-1.12 3.52-1.68 1.52zm3.12-5.2l4.96-2.08-6 5.44 1.04-3.36zm.08-.32l2.24-7.12 3.12 4.88-5.36 2.24zm1.68-18.8V14l.08.56h-.08zm-.24-.4L216.4 10l3.04-2.16-.08 6.32zm-.08.32l-12.08 1.84 8.96-6.16 3.12 4.32zm-12.24 1.68l5.44-11.28L216 9.92l-8.96 6.24zm-.72-.72l-1.2-2.56 6.64-7.28-5.44 9.84zm-.16.24l-.08.16-2.08-1.76.96-.96 1.2 2.56zm-.24.4l-.24.56-3.12.72-.64-.96 1.92-2.08 2.08 1.76zm-4.16.16l-1.6-2.24-.16-2.96 3.68 3.12-1.92 2.08zm-1.84-2.64l-4.56-6.56 4.4 3.76.16 2.8zm-4.96-7.2l4.48-.4.24 4.4-4.72-4zm0-.24L199.04.8l.32 4.96-4.4.4zm-9.36.8l-.16-1.76 8.08 1.12-7.92.64zm-7.36.64l.72-6.72 6.08 4.08-6.8 2.64zm-.24 0l-4.4-2.88 5.12-3.76L178 7.6zm-.24.16L167.44 9.2l5.92-4.32 4.4 2.88zm0 .24l-6.32 8-4.24-6.56L177.76 8zm.08.4l-3.36 12.16-2.88-4.4 6.24-7.76zm-10.72 22.08l-.08-8.56 7.2-.88-7.12 9.44zm2.48 14.08l-2.72 1.6.24-7.2 2.48 5.6zm.08.24l1.28 2.96-3.92-1.36 2.64-1.6zm7.44 18.88l-10.08-3.52 4.16-11.84 5.92 15.36zm-3.68 3.2l-6.32 4.96-.16-11.28 6.48 6.32zm4.4 4.72l-10.56 8-.08-7.36 10.64-.64zm.4 0l5.44 8.48-16.16-.32 10.72-8.16zm19.04-.08l7.84 7.84-20.72.72 12.88-8.56zm12.4-1.12l8 4.8-12 4.08 4-8.88zm9.36-14.08l6.24 8.24L210 69.92l9.04-13.6zm1.2-4.8h4.24l-5.2 4.24.96-4.24zm1.12-5.2l.48-2.08 2.56 6.24-3.04-4.16zm-2.88-3.92l-1.84-2.56 4.48 3.52-2.64-.96zm-1.84-4.88l4.64-4.16-4.96 5.28.32-1.12zm3.6-11.6l1.52-1.36 1.44 5.92-2.96-4.56zm0-.32l-.24-8.4 1.68 7.04-1.44 1.36zm-.32-9.68v-.64l5.12 5.76-3.12 2.96-2-8.08zm0-1.04l-.16-6.56 5.04 12.08-4.88-5.52zm-3.68-5.12l-3.44-4.8 6.48 2.72-3.04 2.08zm-11.2 2.88l-3.2-6.88 10.24-.96-7.04 7.84zm-.24.24l-.96 1.04-3.84-3.28-.32-4.64 1.84-.16 3.28 7.04zm-5.12-7.12l-.32-4.56 2.08 4.32-1.76.24zm-5.04.4l-5.92-2.08L198.8.72l-4.16 5.44zm-1.2-.16l-7.52-1.04 2.4-.8L193.44 6zm-8.08-1.12l-5.52-3.76L187.92 4l-2.56.88zm-12-.32L167.68.8h10.8l-5.12 3.76zm-.24.16l-6 4.4.24-8.24 5.76 3.84zm-1.84 11.44l-4.24 5.28V9.84l4.24 6.32zm.16.24l2.88 4.4-7.04.88 4.16-5.28zm-.4 31.68l-4.08 11.44-.08-12.96 4.16 1.52zM218 75.04l-8.08-4.8 15.28-5.36-7.2 10.16zm7.36-10.8l-6.16-8.16 5.6-4.48.56 12.64zm-1.92-33.76L222 24.32l3.04-2.88-1.6 9.04zM211.76 4.56l-10.08.96-2.24-4.8 12.32 3.84zM198.32.64l-10 3.28L179.6.8l18.72-.16zM120 136.48l-.16-11.12-.72-11.52v-.08l-3.68-9.04v-.08l-10.16-8.88-5.44-1.92-4.72-1.44-7.52.32-6.64-.48-11.12.16-9.12-.16h-.08v.16l.48 5.76-.32 9.04 1.52 12.56-2.24 5.2.88 9.84-.56 12.72h.08v.08l1.76 2.08-2 11.44.56 10.8v.08h.08v.08l10.48.16h18.32l10.48-1.2v-.08h.08l5.2-2.4 4.56-2.24v-.08l6.48-8v-.08l2.16-5.36v-.08l1.2-6.24.16-10zm-51.6 10l2.4-7.2 2 11.2-4.96-1.36.56-2.64zm-3.12-49.44l4 2.08-7.44-1.04 3.44-1.04zm1.6 58.08l8.56 7.44-7.44.88-1.12-8.32zm20.88-55.04l7.12-2.48.72 2.16-7.84.32zm26.96 12.16l-9.68 3.44 5.6-9.28 4.08 5.84zm-19.68 40.88l-3.52.4 7.12-4.56-3.6 4.16zm-1.92.48l-2.88.72.72-.48 2.16-.24zm-12.72.88v-1.28l3.52 1.2-3.52.08zm-.24-.08l-5.92-3.2 5.84 1.92.08 1.28zm-.08-44.64l3.28-2.4-3.44 10 .16-7.6zm-.48 8.16l-4.88-4.24 5.04-3.76-.16 8zm-.08.24l-4 3.92-.8-8.16 4.8 4.24zm.08.32v9.76l-4-5.84 4-3.92zm.72 34.48l-.24-9.76 4.32 11.04-4.08-1.28zm-.24-10.56l-.16-6.96v-17.2l3.76-11.04 10.16 3.28 5.84 7.44.88 13.36-.32 5.36-1.04 11.68-8.32 5.28-6.16.72-4.64-11.92zM100 118.48l2.8 5.84-2 6.24-.8-12.08zm.96 12.32l2.08-6.32 2.88 1.68-4.96 4.64zm5.2-4.56l4.48 2.56-9.52 2.24 5.04-4.8zm-2.8-1.92l5.6-1.04-2.8 2.64-2.8-1.6zm-.24-.16l.8-3.92 5.12 2.8-5.92 1.12zm-.24-.24l-2.8-5.76 3.6 1.92-.8 3.84zm-2.72-6.08l4.4-1.68-.8 3.68-3.6-2zm-.24-.16l-.4-4.32 4.88 2.56-4.48 1.76zm-.24-.24l-5.28-6.72 4.8 2.48.48 4.24zm.8 21.04l4.72 3.76-5.76 5.76 1.04-9.52zm0-.32l.08-1.44 1.76-1.36 2.72 6.48-4.56-3.68zm.08-1.84l.24-4.48 1.44 3.28-1.68 1.2zm.32-4.96l9.52-2.24-8 5.84-1.52-3.6zm5.52-5.28l2.96-2.8 1.44 5.28-4.4-2.48zM104 120l.8-3.76 4.24 6.48L104 120zm-4.48-6.96l-.4-3.68 5.04 6.16-4.64-2.48zm-.32-.08l-4.96-2.56 4.56-1.28.4 3.84zm-15.44-6l3.2-6.48 6.56 9.6-9.76-3.12zM80 109.28l-5.68-9.6 9.04 7.36-3.36 2.24zm-4.8 12.88l-7.44-2.64 6.64-5.6.8 8.24zm4.32 6.4l-9.44 1.28 5.28-7.28 4.16 6zm.08.24v6.4l-9.36-5.04 9.36-1.36zm.16 13.44l-8.56-3.44 8.4-3.12.16 6.56zm.32 10.64l-6.88-2.32 6.64-7.76.24 10.08zm0 1.84l-4.32 7.6-2.64-11.44 6.96 3.84zm.24.08l4-.16-8.08 7.36 4.08-7.2zm10.08-.88l-.88.56-3.12-.08 4-.48zm4.56-.48l-2 8-3.28-6.72 5.28-1.28zm4.32-4.88l5.92 8.08-9.84-3.44 3.92-4.64zm6.32 8.16l-6.16-8.32 5.92-5.92 6.64 11.2-6.4 3.04zm-3.04-21.52l8.4-6.16 5.04 11.2-10.56 1.84-2.88-6.88zm8.48-6.56l-1.36-5.2 4.32 4.08-2.96 1.12zm3.12-.96l2.64 2.48-5.36-1.36 2.72-1.12zM104.88 116l9.84-3.52-5.36 10.32-4.48-6.8zm-.16-.32l-5.52-6.64 11.2-2.72-5.68 9.36zm-10.8-5.52l-6.8-9.84 8.48-.32h.08l3.12 8.88-4.88 1.28zm1.2-12.64l9.04-1.36-8.32 3.44-.72-2.08zm.32-.32l4.24-3.04 4.96 1.68-9.2 1.36zm-8.4 2.8l.64-6.88 6.96 4.24-7.6 2.64zm-3.44 6.64l-2.24-9.28 5.36 2.88-3.12 6.4zm-2.56-9.44l2.32 9.44-9.28-7.44 6.96-2zm-1.28 12.24l-5.28 4.08-8.08-2.4-2.88-8.56 10.24-3.28 6 10.16zm-5.52 4.24l-6.64 5.68-1.12-8 7.76 2.32zm-6.72 6l6.08 2.16-10-2 3.92-.16zm2.24 10.16l-6.08-3.6 11.36-3.6-5.28 7.2zm9.68 5.6l-8.48 3.12-.96-8.24 9.44 5.12zm.24 7.04l-6.64 7.84-2-11.36 8.64 3.52zm-4.16 19.84l-8.64-7.52 6-3.92 2.64 11.44zm9.04-7.6l1.52 7.84h-10l8.48-7.84zm.24-.08l4.64.16 1.12 11.04-4.24-3.2-1.52-8zm4.96.72l3.12 6.4-2.08 3.92-1.04-10.32zm5.44-1.92l10.32 3.6 2.72 4.24-8.08 9.36-7.04-8.88 2.08-8.32zm12.72 8.56l-2.56 6.24-4.72 2.24 7.28-8.48zm-2.16-5.04l6.16-2.88-3.6 6.96-2.56-4.08zm0-14.4l10.64 4.96-4.16 6-6.48-10.96zm.08-.24l10.24-1.84.32 6.8-10.56-4.96zm5.52-13.04l5.36 4.72-.56 5.84-4.8-10.56zm.16-.16l5.6 1.36-.32 3.2-5.28-4.56zm5.84 1.76l2.16 5.12-2.48-2.16.32-2.96zm-.16-.72l-2.72-2.56 4.96-2-2.24 4.56zm-2.96-2.8l-4.4-4.08 9.44 2.08-5.04 2zm.72-14.8l.08.08v.08h.08l3.68 1.12-8.88 8.56 5.04-9.84zm.16-.4l.08-1.68 3.2 2.96-3.28-1.28zm-.24-.32l-3.44-4.72 3.52 3.2-.08 1.52zm-4-5.6l4.32-1.28-.24 4.96-4.08-3.68zm-11.84 2.56l-3.12-8.96L105.2 96l5.28 10.08-11.44 2.72zm-.96-15.12l-2.88-.24v-.72l2.88.96zm1.12.32l.16.08-4.32 3.04.16-3.44 4 .32zm-4.4 3.2l-6.64-4.16 6.8.64-.16 3.52zm-8 2.8l-5.36-2.96 6-3.92-.64 6.88zm-12.48-1.12l6.56-6.24.16 4.32-6.72 1.92zm-4.24.32l-.16-6.16 3.68 6-3.52.16zm-.08.24l2.8-.08-9.36 2.96-1.92-4.08 8.48 1.2zm-3.92 11.44l-5.04-3.76 2.32-4.32 2.72 8.08zm1.28 8.56l-4.64.16 3.52-7.92 1.12 7.76zm7.52 2.96L63.44 126l-.8-6.08 12.24 2.48zm-11.44 4l1.92 1.12-1.92-.96v-.16zm-.24 0l-.88-.48.88.4v.08zm6.32 3.68l-8.24 4.4 2.08-7.68 6.16 3.28zm.16.16l1.04 8.32-9.36-3.84 8.32-4.48zm2.96 20.48l-5.76 3.84.96-5.2 4.8 1.36zm-4.88 12.72l-6.56 2.48 5.36-10.64 1.2 8.16zm-.32.4l-6.4 7.68v-5.28l6.4-2.4zm8.08-1.04l-4.16 8.96-3.28-8.08 7.44-.88zm10.48 0l-5.68 9.04-4.4-9.04H86zm-3.2 5.52l3.36-5.36 1.76 4.64-7.28 4.16 2.16-3.44zm3.68-5.28l4 3.12-2.32 1.36-1.68-4.48zm4.08 3.36l-.88 5.2-1.44-3.84 2.32-1.36zm.32-.08l.48.32-1.2 3.6.72-3.92zm.08-.24l1.44-2.8-.96 3.04-.48-.24zm2.08-4l6.64 8.4-8-4 1.36-4.4zm12.64 6l2.64-6.4 1.44 4.4-4.08 2zm6.56-14.08l3.92 4.08-7.52 2.96 3.6-7.04zm.16-.24l4.16-6 1.44 4.08-1.68 6.08-3.92-4.16zm4.32-6.16l2.8-.96-1.36 4.8-1.44-3.84zm0-.32l-.32-6.4 3.12 5.52-2.8.88zm.24-13.12l2.72 2.32-3.28 3.52.56-5.84zm.48-3.76l2.16-4.48.16 9.92-2.32-5.44zm-7.76-7.44l9.2-8.88.72 11.12-9.92-2.24zm5.52-12.8l.24-4.8 3.2 8-3.44-3.2zm-4.48-4.16l-5.04-9.6 9.44 8.32-4.4 1.28zM94.96 93.36l-5.36-.4 5.36-.32v.72zM81.28 96.8l-.16-4.32 6.08.48-5.92 3.84zm-7.44 2.16L70 92.64l10.64-.16-6.8 6.48zm-4 .16l-4.48-2.32-4.32-4.32 8.64.16.16 6.48zm-4.8-2.32l-3.68 1.12-.48-5.2 4.16 4.08zm-3.68 1.84l1.84 3.84-2.16 4.16.32-8zm4.8 12.64l-3.6 8-1.52-11.84 5.12 3.84zm-3.76 8.96l.8 5.76-2.8-1.12 2-4.64zm.72 6.4l-2 7.36-.72-8.8 2.72 1.44zm-1.92 8.32l9.44 3.84-9.92 8.4.48-12.24zm9.36 4.24l-2.48 7.2-.48 2.64-4.88-1.36h-.08l-1.76-.24 9.68-8.24zm-2.96 10.08l-1.04 5.28-4.08-4.96.24-1.6 4.88 1.28zm-6.64 16.4l-.4-4.56 5.6-5.6-5.2 10.16zm-.16.48v.32l-.08-.64.08.32zm7.04-2.4L71.2 172l-10-.24 6.64-8zm7.92-.8l4.32 9.04H71.6l4.16-9.04zM88 167.84l1.52 4.16H80.8l7.2-4.16zm3.6-1.12l8.08 4.08-9.76 1.12 1.68-5.2zm18.4-.8l-1.44-4.56 7.44-2.96-6 7.52zm8.16-13.6l.16.4-1.04 2.72.88-3.12zm.32-.08l-.16-.4.64-2.4-.48 2.8zm1.12-6.24l-3.2-5.68 3.36-3.52-.16 9.2zm-58.72 1.68l1.6.24-.24 1.44-1.36-1.68zm5.6 7.12l-5.92 5.92 1.84-10.8 4.08 4.88zm62.8 12.72l-.16 4.16h.16v.16l4.56.16.08-.08v.08l13.76-.32 10.32.24v-.16.16l11.28-.32 14.24.16v-.08l.16-.08-.24-16.96h-.16v-.16l-9.04-.16v.08-.08h-11.68l-13.92-.16-.16-13.36 21.12-.16-.08-.08 8.8-4.08-.08-.16h.16l.08-13.12h-.08v-.08l-15.36 1.84-13.84-3.68-.08-4.8 3.04-6.88 7.2.08 10.16.24v-.16.16l13.76-.24v-.16h.16V92.24h-.16v-.16l-17.12 2L153.6 92v.16V92l-11.28.88-12.96-.8-.08.16h-.08v12.08h.08-.08l2.4 11.12-2.48 9.92h.16-.16l1.12 15.68-.8 8h.16-.16l-.16 18.48zm17.28-63.36l2 4.96-10-5.92 8 .96zm-8.4-1.28l4.16-9.52 4.16 10.56-8.32-1.04zm8.72 1.36l3.12.32-1.2 4.48-1.92-4.8zm3.44.4l3.52.4-4.8 4 1.28-4.4zm7.76.64l2.96.16-.64 1.36-2.08-.64-.24-.88zm-.08.8l-2.88-.96 2.64.16.24.8zm9.2-.56l1.2-.48.16.8-1.36-.32zm1.36.56l.64 3.04-2.16-3.36 1.52.32zm-1.68-.72l-.48-9.52 1.92 8.96-1.44.56zm-.24.08l-5.2-.24 4.64-10.4.56 10.64zm-.88.16l-5.04 1.12.64-1.28 4.4.16zm-5.84 1.28l-1.28.32-.24-.72 1.52.4zm.4.24l-.96 2.08-.64-1.76 1.6-.32zm6.4-1.44l2.48 3.84-8.32-2.56 5.84-1.28zm2.16.48l2.8.72-2.08 2.64-.72-3.36zm-.08-.24l-.16-.96 6.64-2.72-3.44 4.4-3.04-.72zm6.96-3.76l7.12 7.12-10.72-2.56 3.6-4.56zm-7.2 2.56l-2.16-10.16 9.04 7.36-6.88 2.8zm-7.36.4l-3.28-.16-.8-2.48 8.72-7.76-4.64 10.4zm-3.52-.16l-3.28-.16 2.48-2.16.8 2.32zm-3.44-.32l-.48-11.52 3.04 9.28-2.56 2.24zm-.24 0l-2.88-2.96 2.4-8.64.48 11.6zm-.24.16l-3.36-.4.64-2.4 2.72 2.8zm-3.68-.48l-3.28-.4-4.16-10.4 8.16 8.24-.72 2.56zm-12.08-1.6l-2.8-3.36 6.72-5.84-3.92 9.2zm-.24.16l-8 1.2 5.28-4.56 2.72 3.36zm10.8 6.56L132 115.2l6.08-12 10.48 6.24zm.08.24l-1.68 10.96-14.8-5.2 16.48-5.76zm1.68 23.04l-1.76 6.72.32-6.8 1.44.08zm-1.44-.32l.16-4.24 1.28 4.24h-1.44zm.24-5.04l.08-2.8.88 6.24-.96-3.44zm-.24-.8l-.64-2.24.8-.8-.16 3.04zm-.08.8l-.16 5.04-8.24-.08 7.6-7.76.8 2.8zm-8 4.24l6.24-10.48.88 3.12-7.12 7.36zm7.76 1.04l-.32 7.68-7.84-7.68h8.16zm2 .08l10.8 2.72-12.8 4.96 2-7.68zm11.44 2.4l1.12-9.52 2.8 6.88-3.92 2.64zm4.08-2.4l1.12 2.88-4.96-.32 3.84-2.56zm1.28 3.12l1.76 4.32-6.88-4.56 5.12.24zm.24 0l2.72.16-.96 4.08-1.76-4.24zm-.08-.24l-1.28-3.04 5.84-3.92-1.68 7.12-2.88-.16zm4.8-6.96l5.68 7.52-7.36-.4 1.68-7.12zm-6.16 3.68l-2.88-6.96 8.72 3.04-5.84 3.92zm-4.48 2.8l-5.76-5.6 6.96-4.16-1.2 9.76zm-.32.08l-10.56-2.72 4.88-2.88 5.68 5.6zm-10.8-2.88l-1.2-8.8 6.08 5.92-4.88 2.88zm-2.4-8.32l-.8-2.64 1.6 1.76-.8.88zm-8.08 8.32l-10.48-6.88 17.2-4.4-6.72 11.28zm8 8.24l-17.36.32 9.36-8.24 8 7.92zm-.08.24l-12.16 11.44-5.28-11.04 17.44-.4zm-16.56 28.48l4.96-5.92-2.56 8.16h-.16l-2.24-2.24zm1.92 2.24l-3.84.08 1.76-2.08 2.08 2zm.8 0l2.56-8.56 8.4 6.72-10 1.84h-.96zm13.52-2.4l-2.24.48-7.6-6.08 9.84 5.2v.4zm.32-.24l.32.16-.4.08.08-.24zm-.32.56l-.08 1.84-1.92-1.52 2-.32zm-2.32.4l2 1.6-10.8.08 8.8-1.68zm2.56-.48l.56-.08-.56 1.52v-1.44zm.08-.8l.4-9.84.16 10.16-.56-.32zm-.24-.16l-10.8-5.68 11.36-8.16-.56 13.84zm-16.56.72l-1.6-1.6 6.4-4.16-4.8 5.76zm17.6.16l.48.08-1.12 1.44.64-1.52zm.16-.24l4.56-5.12-4.08 5.28-.48-.16zm7.36-7.84l4.4-.08-.8 2.88-3.6-2.8zm3.52 3.12l-1.76 6.88-1.92-9.84 3.68 2.96zm-4-2.96l2 10.24-8.16-2.32 6.16-7.92zm4.24 3.12l2.32 1.76-4.08 4.96 1.76-6.72zm.08-.32l.8-3.04 4.08-.08.56 1.36-3.04 3.6-2.4-1.84zm17.44-7.2l2.08.32-6.64 1.76.16-.4 4.4-1.68zm-4.32 1.36l.56-2 3.2.56-3.76 1.44zm-.48.8l-3.36.96 3.44-1.36-.08.4zm-5.92 2.08l1.92 8.64-2.96-7.44 1.04-1.2zm-1.12.96l-.4-1.12h1.36l-.96 1.12zm1.36-1.2l5.52-1.52-3.28 11.44-2.24-9.92zm-1.92-.16l-2.08-5.28 3.6 5.2-1.52.08zm-.24 0l-3.92.08 1.6-6 2.32 5.92zm.72 1.84l3.36 8.4-6.24-4.88 2.88-3.52zm7.28-3.28l6.96-1.92-10.32 13.36 3.36-11.44zm7.28-2.32l-1.36-.64 3.76-1.44-2.4 2.08zm-.88-.08l-1.28-.24.48-.16.8.4zm-1.76-.32l-3.68-.56.4-1.52 3.92 1.84-.64.24zm-3.92-.56l-.88-.16 1.2-1.12-.32 1.28zm-.08.24l-.64 2.08-5.36 2.08 4.88-4.32 1.12.16zm-6.64 4.32l-4.08-6 9.28 1.44-5.2 4.56zm-6.16.24l-4.56.08 6.08-6.08-1.52 6zm-12 7.92l-.16-14.24 7.12 6.48-6.96 7.76zm-12-6.24l-.88-9.92 12.24 1.76-11.36 8.16zm-1.12-9.6l.8 9.12-2.56-4.96 1.76-4.16zm-1.92 3.92l-3.84-7.52 5.68 3.12-1.84 4.4zm2.72 5.84l-6.8 4.48 4.08-9.76 2.72 5.28zm-6.96 5.12l1.52 1.52-1.68 2 .16-3.52zm20 1.6l7.52 2.16-9.04-.16 1.52-2zm13.12-3.04l6.32 4.96-10.64.24 4.32-5.2zm17.6-8.88l3.12 14-13.76-.24 10.64-13.76zm.16-.24l2.72-2.4.24 15.52-2.96-13.12zm-1.84-1.04l-3.68-1.68 7.76.16-4.08 1.52zm-6.16-.4l-8.16-1.2 9.68-.08-1.52 1.28zm-16.48 5.04l-7.04-6.48 13.44.24-6.4 6.24zm-19.84-8.48l12.16-11.44.16 13.2-12.32-1.76zm25.68-16.8l7.2 4.8-19.92.08 12.72-4.88zm8.8.48l7.2.32-8.16 3.92.96-4.24zm1.84-7.68l5.84-4.88-.08 12.4-5.76-7.52zm-.16-.16l-8.64-3.04 14.4-1.76-5.76 4.8zm-16.56 1.04l-6.16-5.92 13.12 1.84-6.96 4.08zm-8.24-8.24l1.52.4.08 1.36-1.6-1.76zm1.28-10.08l.16 5.52-1.52 3.36 1.36-8.88zm.56-1.76l4.48-3.76-1.36 3.12-3.12.64zm2.96-.32l-.24.48h-2l2.24-.48zm1.92-3.68l2.72 2.4-4.16.88 1.44-3.28zm.48.08l3.52 1.04.24.88-1.2.32-2.56-2.24zm3.84 2.16l.56 1.76-1.6-1.52 1.04-.24zm2.08-.32l8.08 2.48-9.12-.16 1.04-2.32zm11.36-.24l10.32 2.56-12.48.24 2.16-2.8zm4-4.96l7.2-9.28v16.56l-7.2-7.28zm-.24-.16l-9.2-7.44 16.48-1.92-7.28 9.36zm-18.64.4l-3.28-9.84 12.16 2-8.88 7.84zm-6.16-.64l-8.32-8.4 10.88-.8-2.56 9.2zm-15.84-2.4l-5.44-6.72 12.4.72-6.96 6zm-.16.16l-5.44 4.72V92.56l5.44 6.72zm2.88 3.84l-6 11.92-2.32-10.64 8.32-1.28zm-5.92 12.48l14.8 5.2-17.2 4.4 2.4-9.6zm8 16.88l-9.36 8.32-1.12-15.2 10.48 6.88zm-9.36 9.04l5.04 10.64-5.84-3.2.8-7.44zm3.12 15.68l-4.08 9.68.16-17.28 3.92 7.6zm27.36-32.48l-11.68-1.68v-1.52l11.68 3.2zm-12-3.52l-1.68-.48 1.6-3.68.08 4.16zm.16-5.28l-.16-6.32h2.96l-2.8 6.32zm3.44-7.12l4.56-1.04 1.84 1.68-6.64-.08.24-.56zM250 92.48v-.08h-.08v-.08h-.08l-12.8.16-6.56-.48h-.08v.08l-2.64 11.44-3.76 11.04-2.24 6.48v.08l-4.24 14.72-4.64-14.08-5.04-11.52-.88-8.96v-.08l-2.56-8.08v-.08h-.16l-9.84 2.24-9.92-2.8h-.08v.08h-.08v.16l4.32 8.96 4.08 16.72h.08l6.48 15.04 2.8 9.44 3.76 16.72v.08l4 12.24c0 .08.08.08.08.08h.08l15.36-.16.08-.08 3.84-14.32 4.08-14.56 4.72-7.68v-.08l1.68-9.12 3.28-11.04 4.32-12.64 2.64-9.84zm-44.32 8.4l.16.48-12.72 3.12L199.6 98l6.08 2.88zm-5.84-3.04l4.32-4.4 1.44 7.12-5.76-2.72zm27.84 26.32l-.96-8.08 3.68 2.88-2.72 5.2zm2.96-5.04l8.56 6.64-11.44-1.28 2.88-5.36zm-3.76-3.2l5.28-.32-1.6 3.12-3.68-2.8zm.16-.32l7.92-5.28-2.64 5.04-5.28.24zm9.12-12.32l3.12-.16-3.76 6.24.64-6.08zm-.96 6.4l-6.96-6.08 7.6-.32-.64 6.4zm.96-6.64l.32-3.44 2.72 3.28-3.04.16zm.4-3.84l.56-5.76 2.08 9.04-2.64-3.28zm-.24-.24l-2.16-2.64 2.72-3.28-.56 5.92zm-.08.32l-.32 3.76-7.68.32 5.76-6.8 2.24 2.72zm-1.12 10.56l-8.16 3.44 1.04-9.52 7.12 6.08zm-.96.72l-7.44 4.96.24-2 7.2-2.96zm-7.76 5.04l-2-1.04 2.24-.88-.24 1.92zm-.08.24l-1.2 1.36-.8-2.4 2 1.04zm.16.24l.8 7.28-2-5.92 1.2-1.36zm.88 8.16l-5.28-3.12 2.96-3.44 2.32 6.56zm-19.6 32.64l.96-1.68 6.88 4.48-6.88-.16-.96-2.64zm.64 2.64h-2.16l1.36-2.4.8 2.4zm3.6-20.72l2.24 6.32-11.6-2.32 9.36-4zm-8.72 3.44l8-5.52.64 1.84-8.64 3.68zm6.64 10.96l5.2-.72.72 7.04-6.96-4.56 1.04-1.76zm-1.28 1.6l-1.76-1.12 2.72-.4-.96 1.52zm1.44-1.92l4.32-7.2.64 6.48-4.96.72zm4.56-7.28l6.96 5.6-6.24.96-.72-6.56zm0-.32l2.88-8.56 4.16 14.24-7.04-5.68zm-.16-.4l-2.24-6.16 5.12-2.16-2.88 8.32zm-4.72 8.08l-2.88.4 6.88-7.2-4 6.8zm-1.2 2.08l-.88 1.52-.88-2.64 1.76 1.12zm7.28 4.88l-4.16 8.32-2.88-8.48 7.04.16zm-1.04 2.64l-2.72 6.88-.32-.88 3.04-6zm1.28-2.48l6.56 9.44-10.4.16 3.84-9.6zm-.72-7.68l6.24-.88-5.52 7.92-.72-7.04zm2.4-15.84l11.68 4.88-7.52 9.6-4.16-14.48zm.72 0l13.52 1.6-2.4 3.04-11.12-4.64zm-.64-.32l9.68-11.44 4.56 13.12-14.24-1.68zm-5.68 2.24l-.64-1.84 5.36-.16-4.72 2zm-11.52-11.36l.64-9.28 11.12 4-11.76 5.28zm11.92-5.12l-1.28 14.24-10.56-8.88 11.84-5.36zm-9.84-9.12l-3.36 1.76-6.32-9.68 10.96 4.08-1.28 3.84zm1.52-3.76l3.2 1.12-4.4 2.4 1.2-3.52zm-1.68 4.08l-1.44 4.16-1.6-2.48 3.04-1.68zm-1.6 4.32l-7.44.64 5.76-3.12 1.68 2.48zm1.92-4.48l4.24-2.32-5.6 6.4 1.36-4.08zm1.44-4.16l1.92-5.36 1.28 6.56-3.2-1.2zm-.24-.08l-10.96-4.08 12.72-3.04.32 1.28-2.08 5.84zm2-7.2l.56-.16-.32 1.04-.24-.88zm0-.24l-.08-.32.48.16-.4.16zm-13.2 2.96l1.68-8.72 4.8 2.24-6.48 6.48zm-.24.08l-2.72-3.92 4.32-4.64-1.6 8.56zm-.48-.32l-3.2-2.48.8-.96 2.4 3.44zm6.96 10.72l-6.08 3.36-.16-12.96 6.24 9.6zm1.92 3.04l-.96 8.8-6.96-8.16 7.92-.64zm-.48 6.56l-.16 2.64-.08-.16.24-2.48zm-.24 2.96l-.32 1.76.24-1.84.08.08zm.16.88l.56 5.44-1.44-.4.88-5.04zm.16-.56l10.16 8.56-9.52-2.48-.64-6.08zm10.4 8.88l-8.72 6.08-.96-8.64 9.68 2.56zm3.12 8.8l-7.6 8-4.16-10.32 11.76 2.32zm-6.64 11.44l-1.36 2.24.4-4.88.96 2.64zm.96 2.96l3.04 8.8h-.08l-5.2-8.8h2.24zm3.36 10l-1.36 1.44 1.04-2.08.32.64zm.24.16l4.56.64-6.32 1.12 1.76-1.76zm1.6 0l7.6-.16-3.84.64-3.76-.48zm9.2-.16l2 1.76-6.56-.96 4.56-.8zm.16-.16l.24-.32 1.12 1.44-1.36-1.12zm-.16-.24l-3.92-5.6 4.08 5.28-.16.32zm-6.64-9.52l12.64-2.32-5.68 11.28-6.96-8.96zm.08-.24l5.6-8.08 6.88 5.76-12.48 2.32zm13.36-18.08l3.36 1.36-10.48 7.76 7.12-9.12zm.16-.24l2.32-2.96.96 4.32-3.28-1.36zm2.4-3.52l-4.32-12.72 7.44 7.68-3.12 5.04zm3.28-4.88l2.16 2.16-5.12 2.64 2.96-4.8zm-7.6-8.16l11.52 1.36-3.92 6.4-7.6-7.76zm2.8-5.84l1.76-3.28 4.16-.24 2.8 10.24-8.72-6.72zm1.92-3.52l2.64-5.12 1.36 4.88-4 .24zm2.88-5.2l7.04 4.64-5.68.32-1.36-4.96zm.08-.24l4.88-3.12 2.24 7.84-7.12-4.72zm.16-.4l3.68-6.24.96 3.28-4.64 2.96zm3.92-6.4l7.04-.64-6.08 3.92-.96-3.28zm.16-.32l3.76-3.76 3.36 3.2-7.12.56zm-.32-.08l-2.24-9.68 6.16 5.76-3.92 3.92zm-2.16-9.92l12.16-.16-5.92 6-6.24-5.84zM234 96.08l-3.2-3.84 6 .48-2.8 3.36zm-3.44-3.68l3.28 3.92-5.68 6.72 2.4-10.64zm-3.84 20.96l-2.4.96 3.36-9.68-.96 8.72zm-2.56 1.6l.8 2.4-2.72 3.2 1.92-5.6zm-2.24 6.32l5.44 3.36-9.52 11.12 4.08-14.48zm-10.4 15.04l1.28-13.92 4.56 13.76-5.84.16zm-10.16-18.72l6.32-7.12 4.8 11.12-11.12-4zm5.04-14.56l.4-1.2.56 5.92-.96-4.72zm-.48-2.32l-1.04-5.28 1.76 5.6-.72-.32zm-6.32-3.04l-4.8-2.24 9.04-2.08-4.24 4.32zm-9.76 2.56l-5.12-7.36 9.44 2.56-4.32 4.8zm-.24.24l-.8.88-3.52-7.28 4.32 6.4zm2.96 4.32l.16 12.4-3.76-15.28 3.6 2.88zm7.44 22.16l-.64 5.92-6-13.76 6.64 7.84zm1.04 6.96l.88 7.44-2.32-7.84 1.44.4zm5.36 19.68l-.48 5.2-3.2-14.4 3.68 9.2zm4.96 15.28l-1.36 2.64-3.52-10.88 4.88 8.24zm6.08 1.84l6.24.88-12.08.08 5.84-.96zm7.84.72l-1.92-2.48 5.36-10.48-3.44 12.96zm3.76-14.32l-6.96-5.76 10.96-8.16-4 13.92zm4.32-14.56l-.96-4.48 5.2-2.64-4.24 7.12zm4.48-7.76l-2.16-2.16 3.68-6-1.52 8.16zm1.84-9.36l-2.72-10.08 5.76-.32-3.04 10.4zm3.28-10.96l-2.32-7.84 6.4-4-4.08 11.84zm4.24-12.4l-3.44-3.28 5.84-5.92-2.4 9.2z" fill="#6a00ff" fill-rule="nonzero"/></svg>
